<svg xmlns="http://www.w3.org/2000/svg" xml:space="preserve" id="Layer_1" x="0" y="0" version="1.1" viewBox="0 0 512 512"><path d="M93.238 220.968h172.463c4.466 0 8.084-3.619 8.084-8.084s-3.618-8.084-8.084-8.084H93.238c-4.466 0-8.084 3.619-8.084 8.084s3.618 8.084 8.084 8.084M93.238 177.853h97.01c4.466 0 8.084-3.619 8.084-8.084s-3.618-8.084-8.084-8.084h-97.01c-4.466 0-8.084 3.619-8.084 8.084s3.618 8.084 8.084 8.084M114.796 398.282h280.253c16.344 0 29.642-13.298 29.642-29.642v-91.082a29.64 29.64 0 0 0-3.968-14.822 8.08 8.08 0 0 0-11.044-2.953 8.08 8.08 0 0 0-2.953 11.044 13.46 13.46 0 0 1 1.797 6.732v91.082c0 7.43-6.044 13.474-13.474 13.474H114.796c-7.43 0-13.474-6.044-13.474-13.474v-91.082c0-7.43 6.044-13.474 13.474-13.474h150.905a8.083 8.083 0 0 0 8.084-8.084 8.08 8.08 0 0 0-8.084-8.084H114.796c-16.344 0-29.642 13.298-29.642 29.642v91.082c0 16.343 13.298 29.641 29.642 29.641"/><path d="M477.068 412.237a51 51 0 0 0 2.596-16.11V158.989c0-28.231-22.969-51.2-51.2-51.2h-45.81V29.642C382.653 13.298 369.355 0 353.01 0h-21.558c-16.344 0-29.642 13.298-29.642 29.642v78.147H83.537c-28.231 0-51.2 22.969-51.2 51.2v237.137a51 51 0 0 0 2.596 16.11C14.43 419.065 0 438.368 0 460.8 0 489.031 22.969 512 51.2 512h409.6c28.231 0 51.2-22.969 51.2-51.2 0-22.432-14.43-41.735-34.932-48.563M317.979 29.642c0-7.43 6.044-13.474 13.474-13.474h21.558c7.43 0 13.474 6.044 13.474 13.474v13.474H317.98zm48.505 29.642v188.632h-16.168V59.284zm-48.505 0h16.168v188.632h-16.168zm0 204.8h48.505v20.66c0 .579-.192 1.153-.539 1.617l-21.558 28.743a2.65 2.65 0 0 1-2.156 1.078c-.503 0-1.452-.14-2.156-1.078l-21.557-28.741a2.72 2.72 0 0 1-.54-1.619v-20.66zM48.505 158.989c0-19.317 15.715-35.032 35.032-35.032h218.274v37.726h-57.667c-4.466 0-8.084 3.619-8.084 8.084s3.618 8.084 8.084 8.084h57.667v106.892c0 4.053 1.339 8.071 3.773 11.318l21.558 28.743c3.596 4.796 9.096 7.545 15.091 7.545s11.495-2.75 15.091-7.545l21.559-28.745a18.98 18.98 0 0 0 3.772-11.316v-63.776h33.954c4.466 0 8.084-3.619 8.084-8.084s-3.619-8.084-8.084-8.084h-33.954v-26.947h33.954c4.466 0 8.084-3.619 8.084-8.084s-3.619-8.084-8.084-8.084h-33.954v-37.726h45.81c19.317 0 35.032 15.715 35.032 35.032v237.137c0 19.317-15.715 35.032-35.032 35.032H83.537c-19.317 0-35.032-15.715-35.032-35.032zM460.8 495.832H51.2c-19.317 0-35.032-15.715-35.032-35.032 0-16.257 11.071-30.113 26.426-33.963 9.349 12.434 24.222 20.49 40.943 20.49h344.926c16.72 0 31.594-8.056 40.943-20.49 15.355 3.85 26.426 17.707 26.426 33.963 0 19.317-15.715 35.032-35.032 35.032"/><path d="M235.52 463.495h-1.078a8.08 8.08 0 0 0-8.084 8.084 8.08 8.08 0 0 0 8.084 8.084h1.078a8.08 8.08 0 0 0 8.084-8.084 8.08 8.08 0 0 0-8.084-8.084M433.853 463.495H272.168a8.08 8.08 0 0 0-8.084 8.084 8.08 8.08 0 0 0 8.084 8.084h161.684a8.08 8.08 0 0 0 8.084-8.084 8.08 8.08 0 0 0-8.083-8.084M202.105 463.495h-1.078a8.08 8.08 0 0 0-8.084 8.084 8.08 8.08 0 0 0 8.084 8.084h1.078a8.08 8.08 0 0 0 8.084-8.084 8.08 8.08 0 0 0-8.084-8.084M164.379 463.495H78.147a8.08 8.08 0 0 0-8.084 8.084 8.08 8.08 0 0 0 8.084 8.084h86.232a8.08 8.08 0 0 0 8.084-8.084 8.08 8.08 0 0 0-8.084-8.084"/></svg>