<svg xmlns="http://www.w3.org/2000/svg" xml:space="preserve" id="Layer_1" x="0" y="0" version="1.1" viewBox="0 0 512 512"><path d="M196.888 281.352c-15.92-15.919-37.085-24.687-59.598-24.687s-43.679 8.767-59.598 24.687c-15.919 15.919-24.687 37.085-24.687 59.598a5.67 5.67 0 0 0 5.67 5.669h157.231a5.67 5.67 0 0 0 5.669-5.669c0-22.513-8.767-43.678-24.687-59.598"/><circle cx="137.288" cy="206.604" r="41.228"/><path d="M495.195 99.711H16.805C7.524 99.711 0 107.235 0 116.516v278.967c0 9.281 7.524 16.805 16.805 16.805h478.39c9.281 0 16.805-7.524 16.805-16.805V116.516c0-9.281-7.524-16.805-16.805-16.805m-194.941 67.781h77.003c9.281 0 16.805 7.524 16.805 16.805s-7.524 16.805-16.805 16.805h-77.003c-9.281 0-16.805-7.524-16.805-16.805s7.524-16.805 16.805-16.805m-57.741 211.186H33.61V133.322h208.903zm209.807-34.17H300.254c-9.281 0-16.805-7.524-16.805-16.805s7.524-16.805 16.805-16.805H452.32c9.281 0 16.805 7.524 16.805 16.805s-7.524 16.805-16.805 16.805m0-71.703H300.254c-9.281 0-16.805-7.524-16.805-16.805s7.524-16.805 16.805-16.805H452.32c9.281 0 16.805 7.524 16.805 16.805s-7.524 16.805-16.805 16.805"/></svg>