<svg version="1.1" id="Layer_1" xmlns="http://www.w3.org/2000/svg" x="0" y="0" viewBox="0 0 512 512" style="enable-background:new 0 0 512 512" xml:space="preserve"><path d="M196.888 281.352c-15.92-15.919-37.085-24.687-59.598-24.687-22.513 0-43.679 8.767-59.598 24.687-15.919 15.919-24.687 37.085-24.687 59.598a5.67 5.67 0 0 0 5.67 5.669h157.231a5.67 5.67 0 0 0 5.669-5.669c0-22.513-8.767-43.678-24.687-59.598z"/><circle cx="137.288" cy="206.604" r="41.228"/><path d="M495.195 99.711H16.805C7.524 99.711 0 107.235 0 116.516v278.967c0 9.281 7.524 16.805 16.805 16.805h478.39c9.281 0 16.805-7.524 16.805-16.805V116.516c0-9.281-7.524-16.805-16.805-16.805zm-194.941 67.781h77.003c9.281 0 16.805 7.524 16.805 16.805 0 9.281-7.524 16.805-16.805 16.805h-77.003c-9.281 0-16.805-7.524-16.805-16.805 0-9.28 7.524-16.805 16.805-16.805zm-57.741 211.186H33.61V133.322h208.903v245.356zm209.807-34.17H300.254c-9.281 0-16.805-7.524-16.805-16.805 0-9.281 7.524-16.805 16.805-16.805H452.32c9.281 0 16.805 7.524 16.805 16.805 0 9.28-7.524 16.805-16.805 16.805zm0-71.703H300.254c-9.281 0-16.805-7.524-16.805-16.805 0-9.281 7.524-16.805 16.805-16.805H452.32c9.281 0 16.805 7.524 16.805 16.805 0 9.281-7.524 16.805-16.805 16.805z"/></svg>