<svg viewBox="0 0 119.062 66.146" xmlns:xlink="http://www.w3.org/1999/xlink" xmlns="http://www.w3.org/2000/svg"><defs><linearGradient id="p"><stop style="stop-color:#a09c79;stop-opacity:1" offset="0"/><stop style="stop-color:#b7b399;stop-opacity:1" offset=".5"/><stop style="stop-color:#665e5e;stop-opacity:1" offset="1"/></linearGradient><linearGradient id="o"><stop style="stop-color:#fff;stop-opacity:1" offset="0"/><stop style="stop-color:#d4d2c2;stop-opacity:1" offset=".5"/><stop style="stop-color:#9c9595;stop-opacity:1" offset="1"/></linearGradient><linearGradient id="n"><stop style="stop-color:#ff0;stop-opacity:1" offset="0"/><stop style="stop-color:#7e7e00;stop-opacity:1" offset="1"/></linearGradient><linearGradient id="m"><stop style="stop-color:#001b00;stop-opacity:1" offset="0"/><stop style="stop-color:#004f00;stop-opacity:.1701149" offset=".654"/><stop style="stop-color:green;stop-opacity:0" offset="1"/></linearGradient><linearGradient id="l"><stop style="stop-color:#004d00;stop-opacity:1" offset="0"/><stop style="stop-color:#6c8b27;stop-opacity:0" offset="1"/></linearGradient><linearGradient id="k"><stop style="stop-color:#110100;stop-opacity:1" offset="0"/><stop style="stop-color:#e70000;stop-opacity:1" offset=".415"/><stop style="stop-color:#4e0000;stop-opacity:1" offset=".849"/><stop style="stop-color:#100;stop-opacity:1" offset="1"/></linearGradient><linearGradient id="j"><stop style="stop-color:#c50000;stop-opacity:1" offset="0"/><stop style="stop-color:#e70500;stop-opacity:1" offset=".415"/><stop style="stop-color:#4e0000;stop-opacity:1" offset=".849"/><stop style="stop-color:#100;stop-opacity:1" offset="1"/></linearGradient><linearGradient id="i"><stop style="stop-color:#003ec5;stop-opacity:1" offset="0"/><stop style="stop-color:#0049e7;stop-opacity:1" offset=".415"/><stop style="stop-color:#00184e;stop-opacity:1" offset=".849"/><stop style="stop-color:#000511;stop-opacity:1" offset="1"/></linearGradient><linearGradient id="h"><stop style="stop-color:#423a00;stop-opacity:1" offset="0"/><stop style="stop-color:#9d8a00;stop-opacity:1" offset="1"/></linearGradient><linearGradient id="g"><stop style="stop-color:#003f3f;stop-opacity:1" offset="0"/><stop style="stop-color:#00c8e1;stop-opacity:1" offset="1"/></linearGradient><linearGradient id="f"><stop style="stop-color:#006f00;stop-opacity:1" offset="0"/><stop style="stop-color:#425518;stop-opacity:.21319503" offset="1"/></linearGradient><linearGradient id="e"><stop style="stop-color:#3e4e15;stop-opacity:1" offset="0"/><stop style="stop-color:#6b8a27;stop-opacity:1" offset=".431"/><stop style="stop-color:#2e3b10;stop-opacity:1" offset=".755"/><stop style="stop-color:#678424;stop-opacity:1" offset="1"/></linearGradient><linearGradient id="d"><stop style="stop-color:green;stop-opacity:1" offset="0"/><stop style="stop-color:#006100;stop-opacity:1" offset=".727"/><stop style="stop-color:#003600;stop-opacity:1" offset="1"/></linearGradient><linearGradient id="c"><stop style="stop-color:#a05a00;stop-opacity:1" offset="0"/><stop style="stop-color:#ad8500;stop-opacity:1" offset=".513"/><stop style="stop-color:#2c2100;stop-opacity:1" offset=".842"/><stop style="stop-color:#7f5900;stop-opacity:1" offset="1"/></linearGradient><linearGradient id="b"><stop style="stop-color:#a05a00;stop-opacity:1" offset="0"/><stop style="stop-color:#ad8500;stop-opacity:1" offset=".422"/><stop style="stop-color:#412d00;stop-opacity:1" offset="1"/></linearGradient><linearGradient id="a"><stop style="stop-color:#a05a00;stop-opacity:1" offset="0"/><stop style="stop-color:#ad8500;stop-opacity:1" offset=".5"/><stop style="stop-color:#412d00;stop-opacity:1" offset="1"/></linearGradient><linearGradient xlink:href="#a" id="M" gradientUnits="userSpaceOnUse" x1="52.769" y1="16.734" x2="76.528" y2="20.462" gradientTransform="translate(-12.95 -4.897)"/><linearGradient xlink:href="#b" id="r" x1="61.549" y1="10.445" x2="68.321" y2="13.302" gradientUnits="userSpaceOnUse" gradientTransform="translate(-12.95 -4.897)"/><linearGradient xlink:href="#c" id="q" x1="52.809" y1="14.917" x2="77.345" y2="19.204" gradientUnits="userSpaceOnUse" gradientTransform="translate(-12.95 -4.897)"/><linearGradient xlink:href="#d" id="t" x1="59.609" y1="33.84" x2="70.682" y2="27.695" gradientUnits="userSpaceOnUse" gradientTransform="translate(-12.95 -4.897)"/><linearGradient xlink:href="#e" id="w" x1="58.812" y1="22.128" x2="68.208" y2="44.158" gradientUnits="userSpaceOnUse" gradientTransform="translate(-12.95 -4.897)"/><linearGradient xlink:href="#f" id="z" x1="67.575" y1="30.414" x2="68.354" y2="29.768" gradientUnits="userSpaceOnUse" gradientTransform="translate(-12.95 -4.897)"/><linearGradient xlink:href="#g" id="s" x1="73.896" y1="29.753" x2="79.389" y2="26.097" gradientUnits="userSpaceOnUse" gradientTransform="translate(-12.95 -4.897)"/><linearGradient xlink:href="#h" id="v" x1="82.018" y1="34.646" x2="81.881" y2="36.839" gradientUnits="userSpaceOnUse" gradientTransform="translate(-12.95 -4.897)"/><linearGradient xlink:href="#i" id="F" x1="82.541" y1="23.495" x2="84.388" y2="60.092" gradientUnits="userSpaceOnUse" gradientTransform="translate(-12.95 -4.897)"/><linearGradient xlink:href="#j" id="H" gradientUnits="userSpaceOnUse" x1="82.541" y1="23.495" x2="84.388" y2="60.092" gradientTransform="translate(-12.95 -4.897)"/><linearGradient xlink:href="#i" id="I" x1="64.924" y1="47.115" x2="64.399" y2="55.545" gradientUnits="userSpaceOnUse" gradientTransform="matrix(1.2791 -.09373 -.23468 1.51776 -25.526 -28.614)"/><linearGradient xlink:href="#k" id="J" gradientUnits="userSpaceOnUse" gradientTransform="matrix(1.2791 -.09373 -.23468 1.51776 -25.526 -28.614)" x1="64.924" y1="47.115" x2="64.399" y2="55.545"/><linearGradient xlink:href="#i" id="K" gradientUnits="userSpaceOnUse" gradientTransform="matrix(.66203 -.05714 -.12146 .92524 58.907 -11.5)" x1="64.924" y1="47.115" x2="64.399" y2="55.545"/><linearGradient xlink:href="#k" id="L" gradientUnits="userSpaceOnUse" gradientTransform="matrix(.66203 -.05714 -.12146 .92524 58.907 -11.5)" x1="64.924" y1="47.115" x2="64.399" y2="55.545"/><linearGradient xlink:href="#i" id="D" gradientUnits="userSpaceOnUse" gradientTransform="matrix(.93672 -.04334 -.74032 2.69958 77.99 -118.582)" x1="64.924" y1="47.115" x2="64.399" y2="55.545"/><linearGradient xlink:href="#k" id="E" gradientUnits="userSpaceOnUse" gradientTransform="matrix(.9367 -.04334 -.7403 2.69955 77.99 -118.58)" x1="64.924" y1="47.115" x2="64.399" y2="55.545"/><linearGradient xlink:href="#n" id="y" x1="39.126" y1="30.549" x2="40.509" y2="30.847" gradientUnits="userSpaceOnUse" gradientTransform="translate(5.384 .232)"/><linearGradient xlink:href="#n" id="x" x1="39.404" y1="29.756" x2="40.98" y2="29.756" gradientUnits="userSpaceOnUse" gradientTransform="translate(5.384 .232)"/><linearGradient xlink:href="#n" id="B" x1="41.564" y1="60.167" x2="43.998" y2="60.167" gradientUnits="userSpaceOnUse" gradientTransform="translate(6.268 4.074)"/><linearGradient xlink:href="#n" id="C" x1="50.706" y1="6.661" x2="52.564" y2="6.661" gradientUnits="userSpaceOnUse" gradientTransform="translate(4.773 -2.898)"/><linearGradient xlink:href="#o" id="O" x1="8.348" y1="36.183" x2="8.751" y2="40.325" gradientUnits="userSpaceOnUse" gradientTransform="translate(.05 2.178)"/><linearGradient xlink:href="#o" id="Q" gradientUnits="userSpaceOnUse" x1="8.348" y1="36.183" x2="8.751" y2="40.325" gradientTransform="translate(-.03 -10.26)"/><linearGradient xlink:href="#p" id="P" gradientUnits="userSpaceOnUse" gradientTransform="matrix(1 0 0 -1 .077 95.066)" x1="8.348" y1="36.183" x2="8.751" y2="40.325"/><linearGradient xlink:href="#o" id="U" gradientUnits="userSpaceOnUse" gradientTransform="matrix(.80608 0 0 1.0988 -5.536 -7.328)" x1="8.348" y1="36.183" x2="8.751" y2="40.325"/><linearGradient xlink:href="#o" id="T" gradientUnits="userSpaceOnUse" gradientTransform="matrix(.91945 0 0 1.42918 -6.453 -4.82)" x1="8.348" y1="36.183" x2="8.751" y2="40.325"/><linearGradient xlink:href="#p" id="N" gradientUnits="userSpaceOnUse" gradientTransform="matrix(.89023 0 0 -.9388 1.04 78.983)" x1="8.348" y1="36.183" x2="8.751" y2="40.325"/><linearGradient xlink:href="#p" id="S" gradientUnits="userSpaceOnUse" gradientTransform="matrix(.8595 0 0 -1.00262 -5.929 67.74)" x1="8.348" y1="36.183" x2="8.751" y2="40.325"/><linearGradient xlink:href="#o" id="R" x1="8.594" y1="56.892" x2="8.368" y2="58.535" gradientUnits="userSpaceOnUse"/><radialGradient xlink:href="#l" id="A" cx="68.09" cy="32.419" fx="68.09" fy="32.419" r="7.705" gradientTransform="matrix(.27957 .42564 -.4558 .29937 48.135 -9.21)" gradientUnits="userSpaceOnUse"/><radialGradient xlink:href="#m" id="u" cx="63.446" cy="24.723" fx="63.446" fy="24.723" r="11.722" gradientTransform="matrix(.03747 .62001 -.95467 .0577 69.962 -25.027)" gradientUnits="userSpaceOnUse"/><radialGradient xlink:href="#o" id="G" cx="5.597" cy="39.674" fx="5.597" fy="39.674" r="5.09" gradientTransform="matrix(1.56756 .13388 -.05948 .69645 -.435 11.965)" gradientUnits="userSpaceOnUse"/></defs><g id="helix0"  style="display:inline"><path style="fill:url(#q);fill-opacity:1;stroke:#000;stroke-width:.264583px;stroke-linecap:butt;stroke-linejoin:miter;stroke-opacity:1;paint-order:stroke markers fill" d="M37.358 10.312c8.815.02 20.693 1.544 29.837 3.747-17.334 1.039-21.293-1.92-29.837-3.747"/><path style="fill:url(#r);fill-opacity:1;stroke:#000;stroke-width:.264583px;stroke-linecap:butt;stroke-linejoin:miter;stroke-opacity:1;paint-order:stroke markers fill" d="M47.48 11.766c1.146-2.538 2.348-5.017 4.034-6.995 1.403-.132 2.677-.072 3.621.473 1.112 2.49 1.414 5.217 2.117 7.827z"/><path style="fill:url(#s);fill-opacity:1;stroke:#000;stroke-width:.264583px;stroke-linecap:round;stroke-linejoin:round;stroke-opacity:1;paint-order:stroke markers fill" d="m57.242 16.184 2.585 2.142-1.459 2.117 2.82-1.187 1.162 1.636-2.625 2.014 3.907-.424 1.222 2.203-2.563 2.91 3.708-.406 1.19 3.232-2.502 3.146-8.768-15.704 1.323-1.679"/><path style="fill:url(#t);fill-opacity:1;stroke:#000;stroke-width:.264583px;stroke-linecap:butt;stroke-linejoin:miter;stroke-opacity:1" d="M43.145 20.804c-.273-.105-.438-2.552.026-2.98.496-.602 2.844-.265 4.266-.397-.7-.43-.774-1.588-.424-2.518l10.23 1.275c1.12 6.404 7.533 11.75 8.798 21.554l-10.563-.25c-4.244-11.277 2.484-17.932-12.333-16.684z"/><path style="fill:url(#u);fill-opacity:1;stroke:#000;stroke-width:.264583;stroke-linecap:butt;stroke-linejoin:miter;stroke-miterlimit:4;stroke-dasharray:none;stroke-opacity:1;paint-order:markers stroke fill" d="m55.478 37.489 10.563.249c-1.265-9.804-7.678-15.15-8.799-21.554L47.013 14.91c-.35.93-.276 2.088.424 2.518-1.422.132-3.77-.205-4.266.397-.464.428-.3 2.875-.026 2.98 14.817-1.248 8.09 5.407 12.333 16.685z"/><path style="fill:url(#v);fill-opacity:1;stroke:#000;stroke-width:.264583px;stroke-linecap:butt;stroke-linejoin:miter;stroke-opacity:1;paint-order:stroke markers fill" d="m67.395 29.035-5.959 8.506 4.605.197 5.315-6.25-.023-2.379z"/><path style="fill:#000;stroke:#000;stroke-width:.274945;stroke-linecap:butt;stroke-linejoin:miter;stroke-miterlimit:4;stroke-dasharray:none;stroke-opacity:1;paint-order:stroke markers fill" d="M47.398 16.291c1.063.107 2.115.022 3.115-.425-.728 2.009-2.936 1.813-3.115.425z"/><path style="fill:#ececec;stroke:none;stroke-width:.274945;stroke-linecap:butt;stroke-linejoin:miter;stroke-miterlimit:4;stroke-dasharray:none;stroke-opacity:1;paint-order:stroke markers fill" d="M50.513 15.866c-.777.347-1.58.476-2.398.466a.531.51 0 0 1 .047.211.531.51 0 0 1-.373.486c.704.628 2.158.399 2.725-1.163z"/><path style="fill:#005300;fill-opacity:1;stroke:#000;stroke-width:.264583;stroke-linecap:butt;stroke-linejoin:round;stroke-miterlimit:4;stroke-dasharray:none;stroke-opacity:1" d="m51.13 28.392-3.962.03c-2.369-1.123-2.718-.07-3.054.25l2.64 1.232 4.35.13"/><path style="fill:url(#w);fill-opacity:1;stroke:#000;stroke-width:.264583px;stroke-linecap:butt;stroke-linejoin:round;stroke-opacity:1;paint-order:stroke markers fill" d="m43.145 20.804 1.619.93c9.227-.918 4.063 7.282 7.28 15.708l3.434.047c-.991-8.14-1.282-12.475-2.466-14.71-1.349-2.544-3.854-2.366-9.867-1.975z"/><path style="fill:url(#x);fill-opacity:1;stroke:#000;stroke-width:.264583;stroke-linejoin:round;stroke-miterlimit:4;stroke-dasharray:none;stroke-opacity:1;paint-order:stroke markers fill" d="M44.92 27.26h1.311v5.455H44.92z"/><path style="fill:url(#y);fill-opacity:1;stroke:#000;stroke-width:.264583;stroke-linejoin:round;stroke-miterlimit:4;stroke-dasharray:none;stroke-opacity:1;paint-order:stroke markers fill" d="M44.45 28.352h1.311v5.455H44.45z"/><path style="fill:url(#z);fill-opacity:1;stroke:#000;stroke-width:.264583;stroke-linecap:butt;stroke-linejoin:round;stroke-miterlimit:4;stroke-dasharray:none;stroke-opacity:1;paint-order:stroke fill markers" d="M54.079 23.729c-1.066 1.916-1.377 3.833-1.685 5.749-1.512.46-3.576.067-5.383.059-1.757-.797-2.703-.22-3.316.138l1.716.46-1.872.193 1.753.494-1.607.333c.782.606 1.685.79 2.745.43 7.377-.729 5.178 2.988 12.294-3.985"/><path style="fill:url(#A);fill-opacity:1;stroke:#000;stroke-width:.264583;stroke-linecap:butt;stroke-linejoin:round;stroke-miterlimit:4;stroke-dasharray:none;stroke-opacity:1;paint-order:markers fill stroke" d="M54.079 23.729c-1.066 1.916-1.377 3.833-1.685 5.749-1.512.46-3.576.067-5.383.059-1.757-.797-2.703-.22-3.316.138l1.716.46-1.872.193 1.753.494-1.607.333c.782.606 1.685.79 2.745.43 7.377-.729 5.178 2.988 12.294-3.985"/><path style="fill:url(#B);fill-opacity:1;stroke:#000;stroke-width:.382198;stroke-linejoin:round;stroke-miterlimit:4;stroke-dasharray:none;stroke-opacity:1;paint-order:stroke markers fill" transform="matrix(.79273 -.60957 .10176 .9948 0 0)" d="M48.023 63.491h2.052v1.501h-2.052z"/><path style="fill:url(#C);fill-opacity:1;stroke:#000;stroke-width:.2805;stroke-linejoin:round;stroke-miterlimit:4;stroke-dasharray:none;stroke-opacity:1;paint-order:stroke markers fill" transform="matrix(.82018 .57211 -.50688 .86202 0 0)" d="M55.619 2.305h1.577v2.917h-1.577z"/><path style="fill:url(#D);fill-opacity:1;stroke:#000;stroke-width:.418061px;stroke-linecap:butt;stroke-linejoin:miter;stroke-opacity:1;paint-order:stroke markers fill" d="M87.065 26.986c.949-7.242 4.446-13.976 10.467-16.784 7.546-4.728 8.306 18.447 19.215 23.013-12.986.517-30.718 3.467-29.682-6.23z"/><path style="fill:url(#E);fill-opacity:1;stroke:#000;stroke-width:.418042;stroke-linecap:round;stroke-linejoin:round;stroke-miterlimit:4;stroke-dasharray:none;stroke-opacity:1;paint-order:stroke markers fill" d="M99.222 9.648c-2.658-1.08-14.582 10.228-12.356 18.06.668 1.61 1.34 1.21 2.66 1.759.17-8.517 10.71-18.625 9.696-19.82z"/><path style="fill:url(#F);fill-opacity:1;stroke:#000;stroke-width:.529167;stroke-linecap:butt;stroke-linejoin:miter;stroke-miterlimit:4;stroke-dasharray:none;stroke-opacity:1;paint-order:normal" d="M14.448 27.036c-3.62 13.671-3.095 29.576.27 31.273 6.327 3.9 67.819-4.225 92.207-17.657 15.427-8.048 12.413-7.642-3.578-11.39-14.288-2.42-28.47-1.602-32.014-.153l.023 2.379-5.315 6.25-21.776-.514-1.294-.903c-4.56-.077.174-15.517-28.523-9.285z"/><path style="fill:url(#G);fill-opacity:1;stroke:#000;stroke-width:.264583px;stroke-linecap:butt;stroke-linejoin:miter;stroke-opacity:1" d="M12.855 38.217C2.17 37.47-.386 44.031 12.58 45.014"/><path style="fill:url(#H);fill-opacity:1;stroke:#000;stroke-width:.635;stroke-linecap:butt;stroke-linejoin:miter;stroke-miterlimit:4;stroke-dasharray:none;stroke-opacity:1;paint-order:stroke markers fill" d="M21.94 25.863c-2.165.232-4.595.628-7.33 1.222-3.62 13.672-3.094 28.572.271 30.27 1.743 1.074 7.747 1.678 16.002 1.564-7.337-8.44-9.482-19.348-8.943-33.056z"/><path style="fill:url(#I);fill-opacity:1;stroke:#000;stroke-width:.366558px;stroke-linecap:butt;stroke-linejoin:miter;stroke-opacity:1" d="M29.383 49.552c-.801-3.993 2.06-7.903 9.546-9.876 9.029-3.127 27.81 3.727 44.182 5.382-17.758 1.254-52.333 9.824-53.728 4.494z"/><path style="fill:url(#J);fill-opacity:1;stroke:#000;stroke-width:.366448;stroke-linecap:butt;stroke-linejoin:miter;stroke-miterlimit:4;stroke-dasharray:none;stroke-opacity:1;paint-order:stroke fill markers" d="M41.971 39.018c-1.105.128-2.124.34-3.042.658-7.485 1.973-10.347 5.883-9.546 9.876.242.925 1.486 1.431 3.466 1.63-2.246-4.626 2.01-8.55 9.122-12.164z"/><path style="fill:url(#K);fill-opacity:1;stroke:#000;stroke-width:.205899px;stroke-linecap:butt;stroke-linejoin:miter;stroke-opacity:1" d="M87.326 36.151c-.414-2.434 1.067-4.818 4.941-6.02 4.673-1.907 15.565 3.064 23.131 5.18-9.308 1.081-27.35 4.09-28.072.84z"/><path style="fill:url(#L);fill-opacity:1;stroke:#000;stroke-width:.205838;stroke-linecap:butt;stroke-linejoin:miter;stroke-miterlimit:4;stroke-dasharray:none;stroke-opacity:1;paint-order:stroke fill markers" d="M93.842 29.73c-.573.077-1.1.207-1.575.4-3.874 1.203-5.355 3.587-4.94 6.021.124.564.768.872 1.793.993-1.163-2.82 1.04-5.211 4.722-7.415z"/><path style="fill:url(#M);fill-opacity:1;stroke:#000;stroke-width:.264583;stroke-linecap:butt;stroke-linejoin:miter;stroke-miterlimit:4;stroke-dasharray:none;stroke-opacity:1;paint-order:stroke markers fill" d="m37.358 10.312 2.776 3.26c7.772 1.5 15.603 2.69 23.6 3.034l3.46-2.547c-10.458-.745-19.927-2.19-29.836-3.747z"/><g id="helix1" ><path style="display:inline;fill:url(#N);fill-opacity:1;stroke:#000;stroke-width:.24188px;stroke-linecap:butt;stroke-linejoin:round;stroke-opacity:1" d="M7.372 44.805c.05 2.43 2.973 1.339 3.307-.501-1.932.342-3.307.501-3.307.501z" transform="matrix(1 .36494 0 1 .261 -3.261)"/><path style="fill:url(#O);fill-opacity:1;stroke:#000;stroke-width:.264583px;stroke-linecap:butt;stroke-linejoin:round;stroke-opacity:1" d="M6.94 38.437c-.295-2.17 4.14-2.664 4.017-.054l-.007 4.391c-.338 4.266-.785 3.174-1.277-.041-.374.792-.552 3.65-1.372 0-.815 4.666-1.08 2.7-1.281-.027z" transform="matrix(1 .36494 0 1 .261 -3.261)"/><path style="display:inline;fill:url(#P);fill-opacity:1;stroke:#000;stroke-width:.264583px;stroke-linecap:butt;stroke-linejoin:round;stroke-opacity:1" d="M6.966 56.881c-.294 2.171 4.141 2.664 4.018.054l-.007-2.465c-.338-4.266-.785-3.173-1.277.042-.332-2.593-.47-7.159-1.372-.001-.55-9.71-1.047-3.313-1.281.028z" transform="matrix(1 .36494 0 1 .261 -3.261)"/><path style="display:inline;fill:url(#Q);fill-opacity:1;stroke:#000;stroke-width:.264583px;stroke-linecap:butt;stroke-linejoin:round;stroke-opacity:1" d="M6.87 26.975c-.296-2.171 4.14-2.665 4.016-.055l-.015 1.291c-.029 5.973-.712 3.577-1.277-.041-.477 3.723-.677 7.203-1.372 0-.652 4.166-.967 1.911-1.281-.027z" transform="matrix(1 .36494 0 1 .261 -3.261)"/><path style="fill:url(#R);fill-opacity:1;stroke:#000;stroke-width:.264583px;stroke-linecap:butt;stroke-linejoin:miter;stroke-opacity:1" d="M11.036 57.223c-1.021-1.737-2.89-1.92-4.058.121.917 2.198 3.7 1.636 4.058-.121z" transform="matrix(1 .36494 0 1 .261 -3.261)"/></g><g id="helix2" ><path style="display:inline;fill:url(#S);fill-opacity:1;stroke:#000;stroke-width:.245614px;stroke-linecap:butt;stroke-linejoin:round;stroke-opacity:1" d="M0 30.408c-.253 2.176 3.56 2.67 3.453.054l-.013-1.294c-.137-4.853-.78-1.884-1.097.041-.428-2.481-.596-6.237-1.18 0-.42-7.74-.816-2.308-1.101.028z" transform="matrix(1 .42149 0 1 7.528 -.405)"/><path style="display:inline;fill:url(#T);fill-opacity:1;stroke:#000;stroke-width:.303297px;stroke-linecap:butt;stroke-linejoin:round;stroke-opacity:1" d="M-.11 48.395c-.05-5.377 4.04-6.199 3.693-.078l-.014 1.845c-.857 8.254-.75 5.303-1.173-.06-.448 5.931-.63 12.35-1.262.002-.544 7.343-.657 7.633-1.178-.04z" transform="matrix(1 .42149 0 1 7.528 -.405)"/><path style="display:inline;fill:url(#U);fill-opacity:1;stroke:#000;stroke-width:.249005px;stroke-linecap:butt;stroke-linejoin:round;stroke-opacity:1" d="M.043 32.793c-.238-2.385 3.279-2.93 3.238-.06l-.031 2.211c-.26 10.11-.618 4.527-1.029-.046-.384 4.092-.546 7.915-1.106.001-.518 9.919-.64 3.43-1.033-.03z" transform="matrix(1 .42149 0 1 7.528 -.405)"/></g></g></svg>